<svg width="32" height="32" viewBox="0 0 32 32" fill="none" xmlns="http://www.w3.org/2000/svg">
<path d="M31.3711 15.6855C31.3711 24.3483 24.3483 31.3711 15.6855 31.3711C7.02263 31.3711 0 24.3483 0 15.6855C0 7.02263 7.02263 0 15.6855 0C24.3483 0 31.3711 7.02263 31.3711 15.6855Z" fill="black"/>
<path d="M7.84271 14.1537C7.84271 12.0218 9.57094 10.2936 11.7028 10.2936C13.8347 10.2936 15.5629 12.0218 15.5629 14.1537V21.0266H8.40761C8.09563 21.0266 7.84271 20.7736 7.84271 20.4617V14.1537Z" fill="white"/>
<path d="M15.5629 14.1537C15.5629 12.0218 17.2912 10.2936 19.423 10.2936C21.5549 10.2936 23.2831 12.0218 23.2831 14.1537V20.4617C23.2831 20.7736 23.0302 21.0266 22.7182 21.0266H15.5629V14.1537Z" fill="white"/>
</svg>
