<svg width="470" height="123" viewBox="0 0 470 123" fill="none" xmlns="http://www.w3.org/2000/svg">
<path d="M122.87 61.4348C122.87 95.3643 95.3643 122.87 61.4348 122.87C27.5053 122.87 0 95.3643 0 61.4348C0 27.5053 27.5053 0 61.4348 0C95.3643 0 122.87 27.5053 122.87 61.4348Z" fill="black"/>
<path d="M30.7174 55.4353C30.7174 47.0855 37.4863 40.3166 45.8361 40.3166C54.1859 40.3166 60.9548 47.0855 60.9548 55.4353V82.354H32.9299C31.708 82.354 30.7174 81.3634 30.7174 80.1415V55.4353Z" fill="white"/>
<path d="M60.9548 55.4353C60.9548 47.0855 67.7237 40.3166 76.0735 40.3166C84.4234 40.3166 91.1923 47.0855 91.1923 55.4353V80.1415C91.1923 81.3634 90.2017 82.354 88.9798 82.354H60.9548V55.4353Z" fill="white"/>
<path d="M158.215 80.9348V40.7974H168.421L179.832 67.4028H180.061L191.357 40.7974H201.506V80.9348H193.765V52.9533H193.536L183.788 75.2009H175.818L166.185 52.9533H165.956V80.9348H158.215ZM220.355 81.6229C217.45 81.6229 214.87 81.0113 212.614 79.788C210.397 78.5648 208.658 76.8446 207.396 74.6275C206.135 72.4104 205.504 69.8684 205.504 67.0014C205.504 64.0198 206.116 61.4013 207.339 59.1459C208.6 56.8524 210.34 55.0558 212.557 53.7561C214.812 52.4564 217.412 51.8065 220.355 51.8065C223.222 51.8065 225.726 52.4182 227.866 53.6414C230.007 54.8646 231.689 56.5466 232.912 58.6872C234.135 60.7897 234.747 63.1788 234.747 65.8546C234.747 66.2369 234.728 66.6765 234.69 67.1734C234.69 67.6321 234.671 68.11 234.632 68.6069H211.009V63.8478H226.892C226.777 62.0511 226.108 60.6176 224.885 59.5473C223.7 58.477 222.209 57.9418 220.412 57.9418C219.074 57.9418 217.851 58.2476 216.743 58.8592C215.634 59.4326 214.755 60.331 214.105 61.5542C213.455 62.7392 213.13 64.2491 213.13 66.084V67.7468C213.13 69.3141 213.436 70.6711 214.048 71.8179C214.659 72.9264 215.5 73.7865 216.571 74.3982C217.679 75.0098 218.921 75.3156 220.298 75.3156C221.712 75.3156 222.897 75.0098 223.853 74.3982C224.808 73.7483 225.535 72.9264 226.032 71.9326H233.887C233.352 73.7292 232.454 75.3729 231.192 76.8637C229.931 78.3163 228.382 79.4822 226.548 80.3614C224.713 81.2024 222.649 81.6229 220.355 81.6229ZM238.17 80.9348V52.4946H244.764L245.452 57.1391H245.681C246.598 55.4571 247.841 54.1574 249.408 53.24C250.975 52.2844 252.944 51.8065 255.314 51.8065C257.684 51.8065 259.691 52.3226 261.335 53.3547C262.978 54.3486 264.221 55.8203 265.062 57.7698C265.941 59.7193 266.38 62.1276 266.38 64.9945V80.9348H258.64V65.6826C258.64 63.3126 258.162 61.4968 257.206 60.2354C256.25 58.9739 254.741 58.3432 252.676 58.3432C251.377 58.3432 250.211 58.6681 249.179 59.318C248.147 59.9296 247.344 60.8279 246.77 62.0129C246.197 63.1597 245.91 64.574 245.91 66.256V80.9348H238.17ZM284.063 93.0907C281.349 93.0907 278.96 92.7658 276.895 92.1159C274.869 91.4661 273.283 90.4913 272.136 89.1916C271.028 87.9302 270.473 86.4011 270.473 84.6045C270.473 83.2666 270.817 82.0434 271.506 80.9348C272.194 79.788 273.207 78.7559 274.544 77.8385C275.882 76.8828 277.526 76.061 279.476 75.3729L282.285 79.2146C280.603 79.788 279.38 80.4761 278.616 81.2788C277.851 82.0816 277.469 82.999 277.469 84.0311C277.469 84.7956 277.736 85.4455 278.272 85.9807C278.845 86.5158 279.629 86.9172 280.622 87.1848C281.616 87.4906 282.763 87.6435 284.063 87.6435C285.362 87.6435 286.452 87.4906 287.331 87.1848C288.21 86.879 288.879 86.4394 289.338 85.866C289.797 85.3308 290.026 84.7001 290.026 83.9738C290.026 82.9417 289.663 82.1389 288.937 81.5655C288.21 81.0304 286.796 80.6863 284.694 80.5334C282.744 80.3805 281.024 80.1703 279.533 79.9027C278.042 79.5969 276.723 79.2529 275.577 78.8706C274.468 78.4501 273.512 77.9914 272.71 77.4945C271.907 76.9975 271.257 76.5006 270.76 76.0036V74.6848L276.895 68.3775L281.425 70.0977L275.233 76.9784L277.297 73.5381C277.679 73.691 278.08 73.8439 278.501 73.9968C278.921 74.1497 279.437 74.3026 280.049 74.4555C280.699 74.6084 281.502 74.7613 282.457 74.9142C283.451 75.0289 284.694 75.1627 286.184 75.3156C288.707 75.5067 290.771 75.9463 292.377 76.6344C293.982 77.3224 295.167 78.259 295.932 79.444C296.696 80.629 297.079 82.0816 297.079 83.8018C297.079 85.2926 296.601 86.7452 295.645 88.1595C294.728 89.6121 293.313 90.7971 291.402 91.7146C289.491 92.632 287.044 93.0907 284.063 93.0907ZM284.12 72.506C281.712 72.506 279.629 72.0472 277.87 71.1298C276.15 70.2124 274.812 68.97 273.856 67.4028C272.939 65.8355 272.48 64.0962 272.48 62.1849C272.48 60.2736 272.939 58.5343 273.856 56.9671C274.812 55.3998 276.15 54.1574 277.87 53.24C279.629 52.2844 281.712 51.8065 284.12 51.8065C286.528 51.8065 288.593 52.2844 290.313 53.24C292.071 54.1574 293.409 55.3998 294.326 56.9671C295.244 58.5343 295.703 60.2736 295.703 62.1849C295.703 64.0962 295.244 65.8355 294.326 67.4028C293.409 68.97 292.071 70.2124 290.313 71.1298C288.593 72.0472 286.528 72.506 284.12 72.506ZM284.063 66.8867C285.592 66.8867 286.815 66.5045 287.732 65.7399C288.688 64.9372 289.166 63.7522 289.166 62.1849C289.166 60.6176 288.688 59.4518 287.732 58.6872C286.815 57.8845 285.611 57.4831 284.12 57.4831C282.591 57.4831 281.349 57.8845 280.393 58.6872C279.476 59.4518 279.017 60.6176 279.017 62.1849C279.017 63.7522 279.476 64.9372 280.393 65.7399C281.349 66.5045 282.572 66.8867 284.063 66.8867ZM288.765 57.7125L287.503 52.4946H299.43V56.6804L288.765 57.7125ZM325.598 92.4026V77.2651C324.643 78.4501 323.343 79.4822 321.699 80.3614C320.094 81.2024 318.182 81.6229 315.965 81.6229C313.175 81.6229 310.767 80.9922 308.741 79.7307C306.715 78.431 305.147 76.6535 304.039 74.3982C302.93 72.1428 302.376 69.5817 302.376 66.7147C302.376 63.8478 302.93 61.2866 304.039 59.0313C305.147 56.7759 306.695 55.0175 308.683 53.7561C310.671 52.4564 313.003 51.8065 315.679 51.8065C317.284 51.8065 318.737 52.0359 320.036 52.4946C321.336 52.9533 322.502 53.6032 323.534 54.4441C324.566 55.2851 325.445 56.2981 326.172 57.4831H326.401L326.802 52.4946H333.339V92.4026H325.598ZM317.972 75.3156C319.539 75.3156 320.896 74.9524 322.043 74.2261C323.228 73.4998 324.127 72.506 324.738 71.2445C325.388 69.9448 325.713 68.4349 325.713 66.7147C325.713 65.0328 325.388 63.5611 324.738 62.2996C324.127 60.9999 323.228 59.9869 322.043 59.2606C320.858 58.5343 319.482 58.1712 317.915 58.1712C316.386 58.1712 315.029 58.5343 313.844 59.2606C312.697 59.9869 311.799 60.9999 311.149 62.2996C310.537 63.5993 310.231 65.071 310.231 66.7147C310.231 68.4349 310.537 69.9448 311.149 71.2445C311.799 72.506 312.697 73.4998 313.844 74.2261C315.029 74.9524 316.405 75.3156 317.972 75.3156ZM339.15 80.9348V52.4946H346.891V80.9348H339.15ZM343.05 48.8822C341.635 48.8822 340.469 48.4809 339.552 47.6781C338.673 46.8371 338.233 45.7859 338.233 44.5245C338.233 43.263 338.673 42.2118 339.552 41.3708C340.469 40.5298 341.635 40.1094 343.05 40.1094C344.464 40.1094 345.611 40.5298 346.49 41.3708C347.369 42.2118 347.809 43.263 347.809 44.5245C347.809 45.7477 347.369 46.7798 346.49 47.6208C345.611 48.4618 344.464 48.8822 343.05 48.8822ZM383.087 81.6229C379.074 81.6229 375.595 80.7628 372.652 79.0426C369.747 77.2842 367.51 74.8569 365.943 71.7606C364.376 68.626 363.592 65.0136 363.592 60.9235C363.592 56.8333 364.376 53.2209 365.943 50.0864C367.549 46.9518 369.804 44.5054 372.709 42.747C375.614 40.9886 379.074 40.1094 383.087 40.1094C387.98 40.1094 391.975 41.3135 395.071 43.7217C398.168 46.13 400.117 49.5321 400.92 53.9281H392.376C391.879 51.7874 390.847 50.1246 389.28 48.9396C387.713 47.7163 385.629 47.1047 383.03 47.1047C380.622 47.1047 378.539 47.6781 376.78 48.8249C375.06 49.9335 373.741 51.5198 372.824 53.584C371.945 55.6483 371.505 58.0947 371.505 60.9235C371.505 63.7522 371.945 66.1987 372.824 68.2629C373.741 70.2888 375.06 71.8561 376.78 72.9647C378.539 74.0732 380.622 74.6275 383.03 74.6275C385.629 74.6275 387.713 74.0732 389.28 72.9647C390.886 71.8561 391.937 70.2888 392.434 68.2629H400.92C400.155 72.4295 398.206 75.6978 395.071 78.0679C391.975 80.4379 387.98 81.6229 383.087 81.6229ZM414.492 81.6229C412.237 81.6229 410.364 81.2406 408.873 80.4761C407.42 79.7116 406.35 78.6795 405.662 77.3798C404.974 76.0801 404.63 74.6466 404.63 73.0794C404.63 71.321 405.07 69.7728 405.949 68.4349C406.866 67.097 408.242 66.0649 410.077 65.3386C411.912 64.574 414.225 64.1918 417.015 64.1918H424.183C424.183 62.7774 423.972 61.6115 423.552 60.6941C423.17 59.7767 422.558 59.0886 421.717 58.6299C420.914 58.1712 419.882 57.9418 418.621 57.9418C417.13 57.9418 415.849 58.2859 414.779 58.9739C413.747 59.6238 413.097 60.6559 412.829 62.0702H405.318C405.547 59.9678 406.235 58.1521 407.382 56.623C408.567 55.094 410.115 53.909 412.027 53.068C413.976 52.227 416.174 51.8065 418.621 51.8065C421.373 51.8065 423.743 52.2652 425.731 53.1827C427.718 54.0619 429.248 55.3807 430.318 57.1391C431.388 58.8592 431.923 60.9617 431.923 63.4464V80.9348H425.501L424.699 76.5197H424.469C423.858 77.3607 423.189 78.1061 422.462 78.7559C421.774 79.4058 421.01 79.9409 420.169 80.3614C419.328 80.7819 418.43 81.0877 417.474 81.2788C416.518 81.5082 415.524 81.6229 414.492 81.6229ZM417.015 75.6596C418.086 75.6596 419.003 75.4876 419.767 75.1436C420.57 74.7613 421.258 74.2644 421.832 73.6527C422.405 73.0411 422.845 72.3339 423.15 71.5312C423.495 70.6902 423.724 69.8301 423.839 68.9509H417.875C416.69 68.9509 415.715 69.1038 414.951 69.4096C414.225 69.6772 413.69 70.0786 413.345 70.6138C413.001 71.1107 412.829 71.7032 412.829 72.3913C412.829 73.0794 413.001 73.6719 413.345 74.1688C413.69 74.6657 414.186 75.048 414.836 75.3156C415.486 75.5449 416.212 75.6596 417.015 75.6596ZM449.986 81.6229C447.234 81.6229 444.749 80.9922 442.532 79.7307C440.315 78.4692 438.556 76.7108 437.257 74.4555C435.995 72.2002 435.365 69.6199 435.365 66.7147C435.365 63.7713 436.014 61.191 437.314 58.9739C438.614 56.7186 440.372 54.9602 442.589 53.6987C444.806 52.4373 447.272 51.8065 449.986 51.8065C452.738 51.8065 455.223 52.4373 457.44 53.6987C459.657 54.9602 461.397 56.7186 462.658 58.9739C463.958 61.191 464.608 63.7713 464.608 66.7147C464.608 69.6581 463.958 72.2575 462.658 74.5128C461.358 76.7299 459.6 78.4692 457.383 79.7307C455.204 80.9922 452.738 81.6229 449.986 81.6229ZM449.929 75.0862C451.19 75.0862 452.318 74.7804 453.312 74.1688C454.344 73.5572 455.166 72.6398 455.777 71.4165C456.389 70.1551 456.695 68.5878 456.695 66.7147C456.695 64.8416 456.389 63.2935 455.777 62.0702C455.166 60.8088 454.344 59.8722 453.312 59.2606C452.318 58.649 451.228 58.3432 450.043 58.3432C448.82 58.3432 447.693 58.649 446.66 59.2606C445.628 59.8722 444.806 60.8088 444.195 62.0702C443.583 63.2935 443.277 64.8416 443.277 66.7147C443.277 68.5878 443.583 70.1551 444.195 71.4165C444.806 72.6398 445.609 73.5572 446.603 74.1688C447.635 74.7804 448.744 75.0862 449.929 75.0862Z" fill="black"/>
</svg>
