<svg width="16" height="21" viewBox="0 0 16 21" fill="none" xmlns="http://www.w3.org/2000/svg">
<path d="M5.36949 12.2535C4.72699 11.6109 4.40574 10.8308 4.40574 9.91291V3.3043C4.40574 2.38644 4.72699 1.60626 5.36949 0.963755C6.01199 0.321252 6.79218 0 7.71004 0C8.6279 0 9.40808 0.321252 10.0506 0.963755C10.6931 1.60626 11.0143 2.38644 11.0143 3.3043V9.91291C11.0143 10.8308 10.6931 11.6109 10.0506 12.2535C9.40808 12.896 8.6279 13.2172 7.71004 13.2172C6.79218 13.2172 6.01199 12.896 5.36949 12.2535ZM6.6086 20.9272V17.5403C4.69945 17.2833 3.12073 16.4297 1.87244 14.9795C0.624146 13.5293 0 11.8404 0 9.91291H2.20287C2.20287 11.4366 2.73982 12.7353 3.81372 13.8092C4.88761 14.8831 6.18639 15.4201 7.71004 15.4201C9.23369 15.4201 10.5325 14.8831 11.6064 13.8092C12.6803 12.7353 13.2172 11.4366 13.2172 9.91291H15.4201C15.4201 11.8404 14.7959 13.5293 13.5476 14.9795C12.2993 16.4297 10.7206 17.2833 8.81147 17.5403V20.9272H6.6086ZM8.49481 10.6977C8.70592 10.4866 8.81147 10.225 8.81147 9.91291V3.3043C8.81147 2.99223 8.70592 2.73064 8.49481 2.51953C8.2837 2.30842 8.02211 2.20287 7.71004 2.20287C7.39796 2.20287 7.13637 2.30842 6.92527 2.51953C6.71416 2.73064 6.6086 2.99223 6.6086 3.3043V9.91291C6.6086 10.225 6.71416 10.4866 6.92527 10.6977C7.13637 10.9088 7.39796 11.0143 7.71004 11.0143C8.02211 11.0143 8.2837 10.9088 8.49481 10.6977Z" fill="#3366CB"/>
</svg>
