<svg width="24" height="24" viewBox="0 0 24 24" fill="none" xmlns="http://www.w3.org/2000/svg">
<mask id="mask0_67_196" style="mask-type:alpha" maskUnits="userSpaceOnUse" x="0" y="0" width="24" height="24">
<rect width="23.4958" height="23.4958" fill="#D9D9D9"/>
</mask>
<g mask="url(#mask0_67_196)">
<path d="M14.8689 14.379C15.7255 13.5224 16.1538 12.4822 16.1538 11.2584C16.1538 10.0347 15.7255 8.99453 14.8689 8.13791C14.0123 7.28129 12.9721 6.85299 11.7484 6.85299C10.5246 6.85299 9.48447 7.28129 8.62785 8.13791C7.77124 8.99453 7.34293 10.0347 7.34293 11.2584C7.34293 12.4822 7.77124 13.5224 8.62785 14.379C9.48447 15.2356 10.5246 15.6639 11.7484 15.6639C12.9721 15.6639 14.0123 15.2356 14.8689 14.379ZM9.87607 13.1308C9.3621 12.6168 9.10511 11.9927 9.10511 11.2584C9.10511 10.5242 9.3621 9.90009 9.87607 9.38612C10.39 8.87215 11.0141 8.61517 11.7484 8.61517C12.4826 8.61517 13.1067 8.87215 13.6207 9.38612C14.1347 9.90009 14.3917 10.5242 14.3917 11.2584C14.3917 11.9927 14.1347 12.6168 13.6207 13.1308C13.1067 13.6447 12.4826 13.9017 11.7484 13.9017C11.0141 13.9017 10.39 13.6447 9.87607 13.1308ZM5.2381 16.6062C3.28012 15.2764 1.86058 13.4938 0.979492 11.2584C1.86058 9.02308 3.28012 7.2405 5.2381 5.91071C7.19608 4.58091 9.36618 3.91602 11.7484 3.91602C14.1306 3.91602 16.3007 4.58091 18.2587 5.91071C20.2167 7.2405 21.6362 9.02308 22.5173 11.2584C21.6362 13.4938 20.2167 15.2764 18.2587 16.6062C16.3007 17.936 14.1306 18.6009 11.7484 18.6009C9.36618 18.6009 7.19608 17.936 5.2381 16.6062ZM16.8269 15.1866C18.3688 14.2158 19.5477 12.9064 20.3635 11.2584C19.5477 9.61048 18.3688 8.30108 16.8269 7.33024C15.285 6.35941 13.5922 5.874 11.7484 5.874C9.90462 5.874 8.21178 6.35941 6.66987 7.33024C5.12796 8.30108 3.9491 9.61048 3.13327 11.2584C3.9491 12.9064 5.12796 14.2158 6.66987 15.1866C8.21178 16.1575 9.90462 16.6429 11.7484 16.6429C13.5922 16.6429 15.285 16.1575 16.8269 15.1866Z" fill="#3366CB"/>
</g>
</svg>
