<svg width="40" height="40" viewBox="0 0 40 40" fill="none" xmlns="http://www.w3.org/2000/svg">
<path d="M5.50369 11.5804L13.6057 22.0589M5.18652 13.3332C5.27692 12.8085 5.38285 12.249 5.50369 11.5804C5.59601 11.122 5.7063 10.6822 5.83329 10.2606C5.97208 9.79975 6.13082 9.36052 6.30781 8.9422M10.4636 26.8477C10.629 27.1643 10.8418 27.4506 11.0842 27.7072C11.8202 28.4863 12.8283 28.9903 13.6057 29.2292M13.6502 29.9998C13.576 29.7413 13.5564 29.4841 13.6057 29.2292L4.69019 25.8332M14.4961 22.363C14.8216 22.5145 15.1625 22.7165 15.5166 22.9785C15.8871 23.1325 16.3661 23.0927 16.9188 22.8923C17.2513 22.7716 17.6106 22.5928 17.9889 22.363C18.3122 22.1666 18.6495 21.9329 18.9959 21.6665C19.2676 21.4575 19.5451 21.2284 19.8258 20.9812M15.5166 22.9785L6.30781 8.9422M24.7239 2.91271C25.3649 3.21173 25.922 3.55516 26.3702 3.93245C27.5642 5.3912 27.7056 7.3835 27.1915 9.53374M24.7239 2.91271C25.4436 4.13102 26.9448 7.16086 27.1915 9.53374M21.167 1.87148C21.7424 1.96214 22.2972 2.08122 22.8232 2.22535C23.5118 2.41403 24.1513 2.64566 24.7239 2.91271M27.1915 9.53374C27.0583 10.0911 26.881 10.6591 26.6666 11.2312M26.6666 11.2312L22.8232 2.22535M26.6666 11.2312C26.4854 11.7148 26.2776 12.2014 26.0475 12.6869M21.167 1.87148L26.0475 12.6869M21.167 1.87148C20.644 1.78909 20.1039 1.73016 19.5526 1.69722M23.5031 16.8982C23.7295 16.59 23.9511 16.2756 24.1666 15.9563C24.3575 15.6735 24.5436 15.3869 24.7239 15.0973C25.0102 14.6374 25.2819 14.1701 25.5351 13.6992C25.7158 13.3632 25.8871 13.0253 26.0475 12.6869M25.5351 13.6992L19.5526 1.69722M10.8541 3.66389C11.1955 3.45649 11.5461 3.26696 11.9039 3.0945C12.3756 2.86719 12.8599 2.66956 13.3527 2.49984C13.6468 2.39853 13.9439 2.30716 14.2431 2.22535C14.4941 2.15675 14.7466 2.09486 15 2.03949C15.4642 1.93805 15.9315 1.85843 16.3989 1.79928C16.8794 1.73845 17.3599 1.69925 17.8368 1.68019C18.4162 1.65704 18.9902 1.66361 19.5526 1.69722M17.8368 1.68019L24.7239 15.0973M24.1666 15.9563L16.3989 1.79928M15 2.03949L23.5031 16.8982M22.3787 18.3332C22.6049 18.0625 22.8288 17.7844 23.0492 17.4998C23.2023 17.3022 23.3538 17.1016 23.5031 16.8982M22.3787 18.3332L13.3527 2.49984M22.3787 18.3332C22.0716 18.7007 21.7603 19.0545 21.4478 19.3915M11.9039 3.0945L21.4478 19.3915M21.4478 19.3915C21.1545 19.7079 20.8602 20.0095 20.5674 20.2942M20.5674 20.2942L10.8541 3.66389M20.5674 20.2942C20.3186 20.536 20.0709 20.7654 19.8258 20.9812M10.8541 3.66389C10.4377 3.91679 10.0349 4.19624 9.64901 4.50366M9.64901 4.50366L19.8258 20.9812M9.64901 4.50366C9.27373 4.80261 8.91441 5.128 8.57413 5.48113M18.9959 21.6665L8.57413 5.48113M6.30781 8.9422C6.48998 8.51164 6.69149 8.10324 6.91051 7.71621C7.1194 7.34709 7.34421 6.99741 7.58335 6.6665C7.89102 6.24079 8.2224 5.84614 8.57413 5.48113M7.58335 6.6665L17.9889 22.363M16.9188 22.8923L6.91051 7.71621M13.6057 22.0589C13.887 22.1194 14.1845 22.218 14.4961 22.363M13.6057 22.0589C13.0917 21.9483 12.6316 21.965 12.2379 22.0589M5.83329 10.2606L14.4961 22.363M12.2379 22.0589L5.18652 13.3332M12.2379 22.0589C11.84 22.1537 11.5098 22.3273 11.2603 22.5278M5.18652 13.3332C5.07072 14.0052 4.98039 14.6201 4.91675 15.3344M4.91675 15.3344L11.2603 22.5278M4.8051 18.5558C4.80439 17.9879 4.81032 17.4872 4.82275 17.0357C4.84069 16.384 4.87216 15.8348 4.91675 15.3344M11.2603 22.5278C11.0824 22.6706 10.9455 22.8272 10.8541 22.9785C10.7817 23.0985 10.7151 23.2167 10.654 23.3332M10.654 23.3332L4.82275 17.0357M10.654 23.3332C10.4429 23.7355 10.2976 24.1171 10.2085 24.4782M4.8051 18.5558L10.2085 24.4782M4.8051 18.5558C4.80587 19.1623 4.81421 19.8454 4.8303 20.6268M10.4636 26.8477C10.2412 26.4222 10.1046 25.942 10.0973 25.4065C10.0933 25.1136 10.128 24.8043 10.2085 24.4782M10.0973 25.4065L4.8303 20.6268M4.8303 20.6268C4.84123 21.1578 4.85575 21.7343 4.8739 22.363M4.8739 22.363C4.87967 22.5628 4.8858 22.7679 4.89231 22.9785C4.90085 23.2552 4.9138 23.5953 4.90677 23.9811M4.8739 22.363L10.4636 26.8477M11.0842 27.7072L4.90677 23.9811M4.16663 27.319C4.412 26.8147 4.57835 26.3135 4.69019 25.8332C4.84737 25.1581 4.89688 24.5243 4.90677 23.9811M4.16663 27.319L13.6502 29.9998M1.97557 31.9824C1.75181 31.5443 1.64256 31.1283 1.67108 30.7524C1.70029 30.3676 1.87397 30.0249 2.2171 29.7439C2.31485 29.6639 2.40909 29.5831 2.49996 29.5016C2.83575 29.2005 3.12536 28.8902 3.37504 28.5751C3.70315 28.1611 3.96229 27.739 4.16663 27.319M13.6502 29.9998C13.722 30.2498 13.8447 30.501 14.0056 30.7524M14.0056 30.7524L3.37504 28.5751M14.0056 30.7524C14.2008 31.0574 14.452 31.3627 14.7362 31.6665M2.49996 29.5016L14.7362 31.6665M14.7362 31.6665C14.9773 31.9242 15.2422 32.1808 15.5166 32.4353M15.5166 32.4353L1.67108 30.7524M15.5166 32.4353C15.7609 32.6619 16.0129 32.8867 16.2625 33.109M1.97557 31.9824L16.2625 33.109M1.97557 31.9824C2.21866 32.4583 2.59688 32.9602 3.08042 33.4647M16.2625 33.109C16.4855 33.3077 16.7067 33.5044 16.9188 33.6985M16.9188 33.6985L3.08042 33.4647M16.9188 33.6985C17.2017 33.9574 17.4686 34.2117 17.7026 34.4602M3.08042 33.4647C3.39948 33.7976 3.76441 34.1317 4.16663 34.4602M4.16663 34.4602H17.7026M10.2085 37.6988C9.17516 37.3725 8.15247 36.9378 7.19325 36.4358C6.68417 36.1694 6.19296 35.8841 5.72753 35.586C5.1649 35.2257 4.63994 34.8468 4.16663 34.4602M17.7026 34.4602C17.8751 34.6435 18.0297 34.8235 18.1596 34.9998M18.1596 34.9998L5.72753 35.586M18.1596 34.9998C18.3385 35.2425 18.4705 35.4782 18.5381 35.7054M7.19325 36.4358L18.5381 35.7054M18.5381 35.7054C18.6138 35.9601 18.6086 36.2042 18.4975 36.4358C18.3897 36.5671 18.277 36.6908 18.1596 36.8071M18.1596 36.8071L10.2085 37.6988M18.1596 36.8071C17.7877 37.1758 17.3695 37.4705 16.915 37.6988M10.2085 37.6988C11.1888 38.0083 12.1786 38.2202 13.1329 38.299M13.1329 38.299C14.5136 38.4131 15.8199 38.2487 16.915 37.6988M13.1329 38.299L16.915 37.6988M23.0492 17.4998L14.2431 2.22535M28.0852 3.44142C27.6658 3.36172 27.2485 3.30773 26.838 3.27609C25.6248 3.18257 24.4714 3.28418 23.5031 3.49361C24.968 4.43408 24.9273 7.02036 24.7239 8.19595C26.1542 8.39491 27.3465 8.98008 28.3333 9.79219C28.759 10.1425 29.1464 10.5351 29.4982 10.9571M26.838 3.27609L28.3333 9.79219M28.0852 3.44142L29.4982 10.9571M28.0852 3.44142C28.5559 3.5309 29.0292 3.6528 29.4982 3.81191M29.4982 10.9571C29.8433 11.3713 30.1542 11.8138 30.4331 12.2726M29.4982 3.81191L30.4331 12.2726M31.862 4.99984C31.5278 4.76641 31.1838 4.56008 30.8333 4.37864C30.3964 4.15246 29.9493 3.96497 29.4982 3.81191M32.0802 16.2456C31.9259 15.6577 31.7298 15.0404 31.4867 14.4199C31.2026 13.6948 30.8542 12.9651 30.4331 12.2726M30.8333 4.37864L31.4867 14.4199M31.862 4.99984L32.0802 16.2456M31.862 4.99984C32.2153 5.2465 32.5577 5.52341 32.8856 5.83317M32.0802 16.2456C32.2809 17.0102 32.411 17.7251 32.482 18.3332M33.6702 25.8332C33.6788 25.2284 33.6576 24.602 33.604 23.9546C33.5389 23.1672 33.4259 22.3487 33.2605 21.5005C33.1566 20.9676 33.032 20.423 32.8856 19.867C32.7723 19.4367 32.6459 18.9996 32.5059 18.5558C32.4989 18.4833 32.4909 18.4091 32.482 18.3332M32.482 18.3332L32.8856 5.83317M32.8856 5.83317C33.2259 6.15469 33.5505 6.51161 33.8554 6.90682M33.8554 6.90682L32.8856 19.867M37.357 24.1665C37.2658 23.9211 37.1737 23.6904 37.0836 23.4785C36.9555 23.1947 36.8475 22.8606 36.7569 22.4998C36.6098 21.9142 36.5085 21.2584 36.4407 20.6336C36.3515 19.8098 36.3206 19.0399 36.3206 18.5558C36.3988 17.5771 36.4298 16.6572 36.4182 15.7931C36.4075 14.9953 36.3604 14.245 36.2806 13.5397C36.1453 12.3432 35.9157 11.276 35.6094 10.3259C35.3553 9.53759 35.0483 8.82993 34.6984 8.19595C34.4395 7.72683 34.1572 7.29806 33.8554 6.90682M34.6984 8.19595L33.2605 21.5005M35.6094 10.3259L33.604 23.9546M33.6702 25.8332L36.2806 13.5397M37.357 24.1665C37.523 24.6129 37.6864 25.1078 37.8305 25.6264C38.0735 26.5005 38.2619 27.4422 38.3169 28.3332C38.4185 29.9793 38.0646 31.4525 36.7569 32.0069C36.6218 32.0641 36.4766 32.1116 36.3206 32.1484C36.1506 32.1886 35.9882 32.2229 35.8333 32.2516C35.3605 32.3393 34.9567 32.3756 34.6129 32.3718C34.1922 32.3671 33.8613 32.3024 33.604 32.1982C33.2166 32.0414 32.9958 31.7954 32.8856 31.5306C32.7755 31.2664 32.7755 30.9836 32.8299 30.7524C33.0093 30.2508 33.1632 29.7219 33.2885 29.1665C33.5194 28.1435 33.6532 27.0307 33.6702 25.8332M36.4182 15.7931L33.2885 29.1665M32.8856 31.5306L36.4407 20.6336M36.7569 22.4998L33.604 32.1982M34.6129 32.3718L37.357 24.1665M37.8305 25.6264L35.8333 32.2516M36.7569 32.0069L38.3169 28.3332M22.7795 23.3875C22.8144 23.6448 22.6141 23.8809 22.3319 23.915M22.7795 23.3875C22.7446 23.1302 22.4875 22.9492 22.2054 22.9832M22.7795 23.3875L21.7578 23.5107M22.3319 23.915C22.0498 23.949 21.7928 23.768 21.7578 23.5107M22.3319 23.915L22.2054 22.9832M21.7578 23.5107C21.7229 23.2534 21.9233 23.0172 22.2054 22.9832M27.704 22.2675C27.9641 24.183 29.8014 25.5396 31.8076 25.2977C33.8138 25.0558 35.2293 23.3068 34.9691 21.3913C34.709 19.4758 32.8718 18.1192 30.8655 18.3611C28.8593 18.603 27.4438 20.352 27.704 22.2675ZM27.704 22.2675L26.1143 22.4592M31.9604 22.1751C31.9953 22.4324 31.795 22.6686 31.5128 22.7026M31.9604 22.1751C31.9254 21.9178 31.6684 21.7368 31.3863 21.7708M31.9604 22.1751L30.9387 22.2983M31.5128 22.7026C31.2307 22.7366 30.9737 22.5556 30.9387 22.2983M31.5128 22.7026L31.3863 21.7708M30.9387 22.2983C30.9038 22.041 31.1042 21.8048 31.3863 21.7708M26.2971 27.6953C29.1018 27.1116 27.6216 25.944 26.9983 23.6088M12.0206 23.6088C11.7535 24.0629 11.3795 25.1526 12.0206 25.8791M17.5 35.8332C22.5 38.3332 30 39.9998 33.3333 31.6665M25.5893 31.8361C27.0857 32.2802 28.2829 31.8361 28.657 30.8738M26.1077 22.4074C26.3717 24.3514 24.8832 26.1328 22.7829 26.386C20.6827 26.6393 18.766 25.2686 18.502 23.3246C18.238 21.3805 19.7265 19.5992 21.8268 19.3459C23.9271 19.0926 25.8437 20.4633 26.1077 22.4074Z" stroke="#343434" stroke-width="1.66667" stroke-linecap="round"/>
</svg>
